<svg width="105" height="105" viewBox="0 0 105 105" fill="none" xmlns="http://www.w3.org/2000/svg">
<path d="M38.1667 16.433C39.8535 16.8491 54.9828 22.397 71.7903 28.7771C88.5892 35.1572 102.436 40.363 102.557 40.363C102.677 40.3537 102.772 40.9732 102.772 41.7407C102.772 42.9705 102.006 42.9612 96.1022 41.6852C92.436 40.89 77.4272 35.7027 62.754 30.1456C48.0808 24.5977 35.7829 20.0392 35.43 20.0299C35.0772 20.0207 34.7846 20.4275 34.7846 20.9361C34.7846 21.4446 36.1357 23.7285 37.7967 26.0216C40.6022 29.8959 40.6883 30.2103 39.0876 30.6449C38.1409 30.8945 37.3664 31.7267 37.3664 32.4942C37.3664 33.2524 37.9602 34.1955 38.6917 34.5746C39.7588 35.1294 38.9757 36.5626 34.7932 41.7407C31.9188 45.3006 29.578 48.5276 29.5952 48.9067C29.6124 49.2858 31.4627 49.6094 33.7088 49.6187C37.6418 49.6372 37.7795 49.7297 37.3664 52.0228C36.9705 54.2234 37.1254 54.3714 39.3027 53.8536C41.0669 53.4375 41.6694 53.6502 41.6694 54.6858C41.6694 55.5827 42.5041 56.0727 44.036 56.0727C45.3355 56.0727 55.3098 55.1943 66.1964 54.1125C77.083 53.0307 86.3602 51.7824 86.8077 51.3385C87.2897 50.8577 86.5926 50.5156 85.0865 50.5064C83.6924 50.5064 73.4426 51.1814 62.3237 52.0135C42.659 53.4837 42.0739 53.4837 41.0325 51.8009C40.4473 50.8392 40.1891 49.8499 40.4645 49.6002C40.7399 49.3413 52.642 48.2687 66.9193 47.2054C81.1966 46.1513 93.1675 45.4208 93.5204 45.5872C93.8732 45.7629 93.2966 46.6321 90.2931 49.1379L96.1022 50.0625L87.7113 56.3871L64.9055 58.6895C52.358 59.947 41.4198 60.7052 40.5936 60.3724C39.7674 60.0395 38.7003 58.5231 38.227 56.9974C37.418 54.3806 37.1168 54.2234 32.8482 54.2512C29.6382 54.2789 27.874 53.8074 26.7724 52.6331C25.6709 51.468 25.361 50.1827 25.7053 48.2132C25.9807 46.6506 28.4506 42.7116 31.3508 39.1979C34.1822 35.7674 36.5144 32.6421 36.5316 32.263C36.5488 31.8839 35.1977 29.6925 33.5281 27.4086C31.8586 25.1155 30.4902 22.4155 30.473 21.3984C30.4644 20.3813 30.9463 18.8649 31.5401 18.0419C32.1426 17.2097 33.1839 16.3406 33.8637 16.1094C34.5436 15.8782 36.4799 16.0262 38.1667 16.433Z" fill="#337875"/>
<path d="M41.668 30.6911C42.847 30.8945 52.5287 32.753 63.1829 34.815C73.8285 36.877 86.0318 39.3643 90.2918 40.3444C94.5517 41.3245 99.2936 42.2492 100.834 42.3971C103.089 42.6098 103.64 43.0721 103.631 44.7457C103.631 46.2991 103.141 46.8169 101.695 46.7892C100.628 46.7615 99.1732 47.4087 98.4675 48.2132C97.6757 49.1101 95.834 49.6556 90.2918 49.5354L92.2281 47.7231C93.5104 46.521 93.803 45.7813 93.0887 45.5409C92.4949 45.3467 80.5842 43.0074 66.6253 40.3351C52.6578 37.6722 40.3685 35.1294 39.3013 34.6855C38.2342 34.2417 37.2875 33.2893 37.1928 32.5681C37.0982 31.8469 37.5801 31.0424 38.2686 30.7835C38.9571 30.5246 40.4803 30.4784 41.668 30.6911ZM28.3287 31.4493C29.4302 31.5232 30.1273 32.3092 30.265 33.6499C30.4371 35.3328 29.9466 35.8414 27.6832 36.3129C26.1428 36.6273 24.4043 36.6273 23.8105 36.3129C23.2167 35.9893 22.7348 34.8982 22.7348 33.8811C22.7348 32.6883 23.4147 31.9116 24.6711 31.6804C25.7383 31.4863 27.382 31.3845 28.3287 31.4493ZM18.0101 33.5945C18.6728 33.8626 19.2322 34.8705 19.2494 35.8321C19.2838 37.0526 18.0703 38.1437 15.2045 39.4475C12.9584 40.4831 10.4368 41.3153 9.61066 41.2968C8.70703 41.2875 8.0702 40.5201 8.00995 39.3828C7.94111 37.968 9.02546 36.9417 12.3646 35.2958C14.8087 34.0938 17.3474 33.3263 18.0101 33.5945ZM5.39373 43.331C6.56414 43.5899 6.76208 44.6255 6.52111 49.1655C6.3662 52.1984 5.89287 55.1018 5.47978 55.6103C5.06669 56.1189 4.12864 56.2206 3.40573 55.8415C2.51932 55.3792 2.0546 53.7426 2.00297 50.9224C1.95994 48.6015 2.39023 45.8738 2.94962 44.8567C3.51761 43.8488 4.61919 43.1553 5.39373 43.331Z" fill="#EF8934"/>
<path d="M101.408 46.8544C103.19 46.8822 103.19 46.8914 101.477 48.2599C100.53 49.0181 99.4632 49.6284 99.1104 49.6191C98.7575 49.6099 98.396 49.2493 98.3186 48.8332C98.2411 48.4078 98.4993 47.7791 98.8952 47.4462C99.2911 47.1041 100.418 46.8359 101.408 46.8544Z" fill="#337875"/>
<path d="M39.2327 49.6016C39.62 49.6016 40.3343 50.4337 40.8076 51.4509C41.3842 52.6806 41.3842 53.3002 40.8076 53.3002C40.3343 53.3002 39.3618 53.5036 38.6561 53.7625C37.8471 54.0491 37.3136 53.596 37.2189 52.5327C37.1414 51.5988 37.3996 50.5539 37.7955 50.2211C38.1914 49.879 38.8368 49.6016 39.2327 49.6016ZM9.75725 59.4953C10.9793 60.3552 13.0447 61.6035 14.3442 62.26C15.7986 63.009 16.6248 64.0908 16.4871 65.0894C16.358 66.0418 15.3769 66.8185 14.1205 66.985C12.8124 67.1514 10.7039 66.2453 8.71591 64.6734C6.92586 63.2494 5.394 61.6497 5.31655 61.1134C5.23909 60.5772 5.71243 59.6433 6.35788 59.0422C7.28732 58.1823 8.02745 58.284 9.75725 59.4953ZM25.2394 65.7829C27.89 66.1343 30.3427 66.5966 30.6956 66.8C31.0484 67.0035 31.341 68.0021 31.341 69.0192C31.341 70.0363 30.8591 70.9979 30.2653 71.1551C29.6715 71.3123 27.1585 71.1089 24.6714 70.6928C21.9003 70.2305 19.9897 69.4076 19.723 68.5569C19.482 67.7894 19.5508 66.7076 19.8607 66.1528C20.2393 65.4778 22.0552 65.3576 25.2394 65.7829ZM37.348 68.0946C38.3033 68.0946 40.4375 69.5463 42.0985 71.3308C43.7508 73.1062 45.1106 75.1866 45.1106 75.9541C45.1106 76.7123 44.5082 77.6554 43.7767 78.0345C42.8644 78.5061 41.6854 77.8496 40.0675 75.9541C38.7594 74.4284 36.9693 72.764 36.0915 72.2555C35.0416 71.6452 34.6801 70.776 35.0416 69.7127C35.3514 68.825 36.3841 68.0946 37.348 68.0946ZM41.4531 81.0674C42.0469 81.0489 42.6923 81.4557 42.8988 81.9735C43.1054 82.4821 43.1054 83.7304 42.8988 84.7475C42.6923 85.7554 40.7646 87.7341 38.5959 89.1303C34.8092 91.5806 34.6199 91.6176 33.2171 89.981C31.8574 88.3814 31.8832 88.1964 33.7593 86.7447C34.8523 85.8941 36.7886 84.2759 38.0623 83.1478C39.336 82.0198 40.8592 81.0859 41.4531 81.0674Z" fill="#EF8934"/>
<path d="M27.0403 87.7214C28.5377 87.8971 29.1917 88.5351 29.1917 89.8204C29.1917 90.9577 28.5291 91.7806 27.4706 91.9563C26.2055 92.169 25.6375 91.6142 25.3191 89.8574C24.9404 87.7584 25.147 87.4995 27.0403 87.7214Z" fill="#EF8934"/>
</svg>
